<?xml version="1.0" encoding="UTF-8"?>
<svg version="1.1" xmlns="http://www.w3.org/2000/svg" width="512" height="512">
<path d="M0 0 C11.1299383 -0.54910512 22.47927224 1.86928395 32.43359375 6.7734375 C33.03824463 7.06734375 33.64289551 7.36125 34.26586914 7.6640625 C44.38571696 13.01850813 52.75000144 21.52593656 60.78515625 29.5390625 C61.65828461 30.40553406 62.53141296 31.27200562 63.43099976 32.16473389 C65.2603113 33.9840018 67.08699806 35.80591257 68.91113281 37.63037109 C71.67348816 40.38834792 74.45146981 43.12990098 77.23046875 45.87109375 C95.09924796 63.62473506 108.77019737 80.90436734 109.05859375 107.1484375 C107.60115329 132.57267666 95.55018792 147.29176512 78.18359375 164.2109375 C75.88435187 166.46762754 73.5880025 168.72719143 71.29391479 170.98912048 C69.87409924 172.38727146 68.45080928 173.78190482 67.02371216 175.17262268 C66.066689 176.1101664 66.066689 176.1101664 65.09033203 177.06665039 C64.52742462 177.61527237 63.96451721 178.16389435 63.384552 178.72914124 C61.4087798 180.84399373 61.06705253 182.06859137 60.75845146 184.98161316 C61.12949763 188.89654975 62.149054 190.02446282 64.86087036 192.81762695 C65.68809727 193.68207428 66.51532417 194.54652161 67.36761856 195.43716431 C68.25564037 196.33188446 69.14366219 197.22660461 70.05859375 198.1484375 C70.91492275 199.028414 71.77125175 199.9083905 72.65353012 200.81503296 C75.49036689 203.71040669 78.35292557 206.57824525 81.22216797 209.44140625 C82.31241589 210.53301287 83.40245177 211.62483131 84.49229431 212.71684265 C87.42136982 215.65043292 90.35354589 218.58090482 93.28647375 221.51064301 C96.36551332 224.58713244 99.44209161 227.66608172 102.51907349 230.74462891 C107.67661101 235.9039785 112.83623766 241.06123179 117.99707031 246.21728516 C123.96292305 252.17767689 129.92513767 258.1416897 135.88551509 264.10755634 C141.01507152 269.24164729 146.14656959 274.37379146 151.27970326 279.50430584 C154.34075333 282.56379761 157.40112524 285.62395951 160.4597435 288.68588257 C163.3286922 291.55771556 166.20006777 294.42709956 169.07335091 297.29459572 C170.12758301 298.3475041 171.18096234 299.40126711 172.23343086 300.45593834 C173.66811152 301.89334513 175.10616839 303.32737976 176.54440308 304.76123047 C177.3485005 305.56495087 178.15259792 306.36867126 178.98106194 307.19674683 C181.48060565 309.54488711 183.35783733 311.00176755 186.74609375 311.7109375 C193.98722349 310.48131169 199.30385854 302.94218165 204.2890625 297.83984375 C204.85056503 297.26595413 205.41206757 296.69206451 205.99058533 296.1007843 C208.32821885 293.70843369 210.66524273 291.31597362 212.98168945 288.90307617 C227.33287192 273.98393171 242.1957093 264.24302221 263.43994141 263.60986328 C273.55128998 263.53669003 282.76597427 263.83065471 292.05859375 268.1484375 C293.00347656 268.58414062 293.94835937 269.01984375 294.921875 269.46875 C305.87968751 275.01585841 314.58853413 283.36854902 323.1953125 291.984375 C324.11899124 292.90376862 325.04266998 293.82316223 325.99433899 294.77041626 C327.93296758 296.70165472 329.8677718 298.63662619 331.80004883 300.57421875 C334.25224186 303.03221398 336.715644 305.4786238 339.18228436 307.9221096 C341.56864001 310.29003281 343.9437987 312.66907461 346.3203125 315.046875 C347.19338547 315.91073822 348.06645844 316.77460144 348.96598816 317.66464233 C363.29078727 332.09719123 371.60918199 348.70989599 372.43359375 369.1484375 C371.63143707 387.59804114 365.37985111 403.18721412 352.05859375 416.1484375 C350.79015625 417.47875 350.79015625 417.47875 349.49609375 418.8359375 C348.69171875 419.5990625 347.88734375 420.3621875 347.05859375 421.1484375 C346.52363281 421.66664063 345.98867188 422.18484375 345.4375 422.71875 C316.86626232 449.21099949 277.21622485 453.56386591 240.1114502 452.25067139 C231.27704862 451.81071115 222.66217657 450.11234787 214.05859375 448.1484375 C212.64392822 447.83495361 212.64392822 447.83495361 211.20068359 447.51513672 C159.97735298 435.92280813 113.87471511 407.70451711 74.05859375 374.1484375 C73.53620117 373.71096191 73.01380859 373.27348633 72.47558594 372.82275391 C57.84456353 360.55061063 44.11746209 347.37905898 30.63964844 333.85986328 C28.53565638 331.75044093 26.4262734 329.64651311 24.31640625 327.54296875 C22.94889753 326.17480015 21.58169855 324.80632189 20.21484375 323.4375 C19.59806763 322.82274811 18.9812915 322.20799622 18.3458252 321.57461548 C14.05440577 317.26033517 10.0225746 312.76400307 6.05859375 308.1484375 C5.60922455 307.63194138 5.15985535 307.11544525 4.6968689 306.58329773 C-3.26904613 297.41965532 -10.67540869 287.87202048 -17.94140625 278.1484375 C-18.48587402 277.42495117 -19.0303418 276.70146484 -19.59130859 275.95605469 C-28.20364044 264.47465182 -35.78407313 252.58314757 -42.94140625 240.1484375 C-43.38081543 239.39594727 -43.82022461 238.64345703 -44.27294922 237.86816406 C-59.52153239 211.71288888 -70.67286016 183.782951 -76.94140625 154.1484375 C-77.21041748 152.88459229 -77.21041748 152.88459229 -77.48486328 151.59521484 C-82.04071052 129.0331392 -82.32625675 102.57812038 -76.94140625 80.1484375 C-76.78575195 79.46185059 -76.63009766 78.77526367 -76.46972656 78.06787109 C-71.20477374 55.52105215 -59.83463733 34.95397564 -42.94140625 19.1484375 C-42.15765625 18.2821875 -41.37390625 17.4159375 -40.56640625 16.5234375 C-29.22940751 6.26615292 -14.99728552 1.14667374 0 0 Z M-35.94140625 36.1484375 C-39.1719303 40.0047166 -42.11081647 43.99135564 -44.94140625 48.1484375 C-45.49570313 48.95925781 -46.05 49.77007812 -46.62109375 50.60546875 C-65.54796386 80.17257412 -66.66935651 119.15087361 -59.53564453 152.46875 C-59.3395459 153.35304687 -59.14344727 154.23734375 -58.94140625 155.1484375 C-58.7594873 155.98375 -58.57756836 156.8190625 -58.39013672 157.6796875 C-53.44898012 179.72280968 -44.11230358 200.08057048 -33.94140625 220.1484375 C-33.56967285 220.88336426 -33.19793945 221.61829102 -32.81494141 222.37548828 C-23.09255526 241.27986695 -10.38944994 259.71193966 3.05859375 276.1484375 C3.77660156 277.04433594 4.49460937 277.94023437 5.234375 278.86328125 C7.48334446 281.6475294 9.76253207 284.40290208 12.05859375 287.1484375 C12.71915771 287.93855225 12.71915771 287.93855225 13.39306641 288.74462891 C25.69973718 303.41418047 38.91713008 317.09840068 52.43359375 330.6484375 C53.04541504 331.26293762 53.65723633 331.87743774 54.28759766 332.51055908 C60.69942113 338.94364932 67.10457436 345.29543824 74.05859375 351.1484375 C75.18888785 352.1325228 76.31782038 353.11817439 77.4453125 354.10546875 C85.10347032 360.74964248 92.9178695 367.10297749 101.05859375 373.1484375 C101.72342773 373.64456543 102.38826172 374.14069336 103.07324219 374.65185547 C153.06973998 411.8231647 214.44873104 442.88673496 278.57641602 434.37451172 C298.68547618 431.12067707 317.29735024 423.04400037 333.05859375 410.1484375 C333.88359375 409.4884375 334.70859375 408.8284375 335.55859375 408.1484375 C346.48582636 398.99318856 353.1892479 387.27238396 355.05859375 373.1484375 C356.08187555 360.66439952 352.00172821 348.22488486 343.96533203 338.65600586 C335.81785599 329.82566757 327.40026771 321.27005599 318.91503906 312.76464844 C316.42441544 310.26422306 313.94467546 307.75331046 311.46484375 305.2421875 C309.85873184 303.62955181 308.25198306 302.01755011 306.64453125 300.40625 C305.55197525 299.2951738 305.55197525 299.2951738 304.43734741 298.16165161 C297.91865464 291.67072452 291.06560715 286.53355067 282.37109375 283.3359375 C281.31535156 282.93761719 280.25960938 282.53929687 279.171875 282.12890625 C267.50607971 278.45498578 255.62200555 279.95590635 244.67895508 285.31347656 C235.15320666 290.80544817 227.93622216 298.93385159 220.37109375 306.7734375 C218.32145032 308.89153946 216.26870381 311.00617611 214.20610046 313.11166382 C212.93272663 314.41191056 211.66654504 315.71925821 210.40925598 317.0350647 C203.8282946 323.76393259 197.50182112 328.26295247 187.87109375 328.3984375 C186.78441406 328.42421875 185.69773437 328.45 184.578125 328.4765625 C177.11002792 327.78031372 172.03198673 324.87156126 166.77697754 319.66925049 C166.22218546 319.13848506 165.66739339 318.60771964 165.09578943 318.06087041 C163.40419213 316.4357444 161.73004571 314.79424867 160.05859375 313.1484375 C159.08860823 312.20486216 158.1183023 311.26161604 157.14762878 310.31874847 C154.26931378 307.50136911 151.41389054 304.66191869 148.56445312 301.81542969 C147.48710131 300.74272575 146.40956024 299.67021185 145.33184814 298.59786987 C142.44975236 295.72869081 139.57081668 292.85636317 136.69293022 289.98296261 C134.88901146 288.18200207 133.08451879 286.38161843 131.27986145 284.58139801 C125.61523549 278.93037775 119.95256273 273.27741132 114.29279089 267.62152934 C107.79036199 261.12359692 101.28140829 254.6322936 94.76681662 248.14655566 C89.70387907 243.10525811 84.64674393 238.05818752 79.59394693 233.0067265 C76.58670757 230.00053133 73.57712561 226.99677775 70.56144714 223.99904633 C67.73114459 221.18526994 64.90814769 218.36436104 62.09047699 215.53793716 C61.05992871 214.50662158 60.02684258 213.47783429 58.99095917 212.45187759 C50.66691015 204.20290793 43.9970012 197.51931692 43.80859375 185.3984375 C44.07332738 170.78514135 54.3013683 162.74455391 64.171875 153.078125 C64.68105972 152.57903625 65.19024445 152.07994751 65.71485901 151.56573486 C67.78928627 149.53665754 69.86566576 147.50994989 71.95629883 145.49755859 C83.17817027 134.67256878 90.88066097 123.76018174 92.0546875 107.7734375 C92.08229566 89.22075595 82.50411527 76.46253317 70.0308075 63.79145813 C68.76645622 62.52376839 68.76645622 62.52376839 67.4765625 61.23046875 C66.5817366 60.32898605 65.68691071 59.42750336 64.76496887 58.498703 C62.8842043 56.60788103 61.00137316 54.71941473 59.11499023 52.83422852 C56.72481273 50.44425446 54.34872405 48.04078427 51.9759016 45.63359547 C49.67276198 43.30260362 47.35498216 40.9862527 45.0390625 38.66796875 C44.20223434 37.81676956 43.36540619 36.96557037 42.5032196 36.08857727 C31.52708741 25.19539447 19.10098898 17.99351787 3.49609375 16.8984375 C-12.57618061 17.20516029 -25.12393936 24.77006492 -35.94140625 36.1484375 Z " fill="#000000" transform="translate(110.94140625,28.8515625)"/>
</svg>
